<svg data-v-423bf9ae="" xmlns="http://www.w3.org/2000/svg" viewBox="0 0 403.4127758905309 163" class="iconAbove"><g data-v-423bf9ae="" id="6b904c2f-93aa-4421-88bd-c956dab94d4e" fill="#A9FFF1" transform="matrix(5.71973320392212,0,0,5.71973320392212,-7.149664069308727,84.18207416258946)"><path d="M3.18 5.43L8.08 5.43L8.08 3.92L1.25 3.92L1.25 13.58L3.18 13.58L3.18 9.51L7.59 9.51L7.59 7.98L3.18 7.98ZM16.06 6.13L14.13 6.13L14.13 9.93C14.13 11.61 13.45 12.40 12.49 12.40C11.59 12.40 11.14 11.91 11.05 11.14C11.00 10.77 10.99 10.36 10.99 10.12L10.99 6.13L9.06 6.13L9.06 10.53C9.06 11.13 9.07 11.51 9.13 11.89C9.30 12.91 10.22 13.78 11.76 13.78C12.47 13.78 13.01 13.64 13.55 13.27L14.13 12.32L14.13 13.58L16.06 13.58ZM24.60 9.70C24.60 7.67 23.39 5.94 21.11 5.94C18.83 5.94 17.33 7.60 17.33 9.88C17.33 12.50 18.91 13.78 20.96 13.78C22.71 13.78 24.11 12.89 24.49 11.16L22.55 11.16C22.43 11.96 21.83 12.42 21 12.42C20.10 12.42 19.40 11.93 19.28 10.36L24.57 10.36C24.60 10.11 24.60 9.88 24.60 9.70ZM21.03 7.29C21.95 7.29 22.48 7.92 22.61 9.10L19.33 9.10C19.50 7.87 20.13 7.29 21.03 7.29ZM27.80 3.29L25.87 3.29L25.87 11.19C25.87 11.68 25.87 12.03 25.90 12.36C25.94 13.33 26.54 13.68 27.50 13.68C27.93 13.68 28.31 13.66 28.69 13.62L28.69 12.29C28.03 12.33 27.86 12.21 27.82 11.83C27.80 11.63 27.80 11.44 27.80 11.14ZM38.57 3.92L36.65 3.92L36.65 8.08L32.13 8.08L32.13 3.92L30.20 3.92L30.20 13.58L32.13 13.58L32.13 9.62L36.65 9.62L36.65 13.58L38.57 13.58ZM44.69 13.58L46.58 13.58C46.47 12.75 46.44 12.25 46.44 11.69L46.44 9.28C46.44 8.88 46.42 8.48 46.40 8.13C46.28 6.85 45.50 5.94 43.41 5.94C41.64 5.94 40.28 6.89 40.22 8.57L42.10 8.55C42.15 7.74 42.57 7.29 43.34 7.29C44.10 7.29 44.44 7.67 44.49 8.19C44.52 8.44 44.52 8.67 44.52 8.89L44.52 9.04L44.04 9.04C41.34 9.04 39.94 9.97 39.94 11.61C39.94 13.02 41.05 13.78 42.34 13.78C43.04 13.78 43.67 13.64 44.18 13.29L44.55 12.49ZM43.08 12.42C42.39 12.42 41.94 12.11 41.94 11.45C41.94 10.47 42.98 10.12 44.52 10.23L44.52 10.84C44.52 11.87 43.86 12.42 43.08 12.42ZM52.65 5.94C51.90 5.94 51.14 6.12 50.72 6.45L50.16 7.27L50.16 3.29L48.23 3.29L48.23 13.58L50.16 13.58L50.16 12.59L50.65 13.36C51.03 13.62 51.79 13.78 52.40 13.78C54.32 13.78 55.97 12.40 55.97 9.72C55.97 7.52 54.74 5.94 52.65 5.94ZM52.02 12.42C51.13 12.42 50.16 11.82 50.16 10.12L50.16 9.77C50.16 7.95 51.03 7.29 52.09 7.29C53.24 7.29 53.97 8.32 53.97 9.84C53.97 11.56 53.14 12.42 52.02 12.42ZM58.20 3.36C57.57 3.36 57.13 3.78 57.13 4.38C57.13 5.00 57.57 5.40 58.20 5.40C58.83 5.40 59.26 5.00 59.26 4.38C59.26 3.78 58.83 3.36 58.20 3.36ZM59.16 13.58L59.16 6.13L57.23 6.13L57.23 13.58ZM63.27 7.46L64.81 7.46L64.81 6.19L63.27 6.19L63.27 4.35L61.33 4.35L61.33 6.19L60.24 6.19L60.24 7.46L61.33 7.46L61.33 11.13C61.33 11.55 61.33 11.87 61.36 12.21C61.45 13.26 61.96 13.73 63.41 13.73C63.84 13.73 64.25 13.71 64.68 13.64L64.68 12.38C63.60 12.46 63.34 12.29 63.28 11.56C63.27 11.37 63.27 11.16 63.27 10.91ZM68.67 5.94C66.89 5.94 65.72 6.80 65.72 8.23C65.72 9.52 66.67 10.12 68.05 10.47C69.34 10.79 69.83 11.12 69.83 11.69C69.83 12.24 69.36 12.50 68.74 12.50C68.07 12.50 67.51 12.12 67.35 11.31L65.42 11.31C65.63 12.99 66.91 13.78 68.71 13.78C70.42 13.78 71.78 13.05 71.78 11.55C71.78 10.18 70.88 9.56 69.36 9.17C68.12 8.86 67.66 8.57 67.66 8.01C67.66 7.55 67.97 7.21 68.54 7.21C69.19 7.21 69.57 7.60 69.69 8.29L71.62 8.29C71.46 6.93 70.45 5.94 68.67 5.94Z"></path></g><g data-v-423bf9ae="" id="f85c60f6-0d39-41ee-8164-86f1b68c055d" transform="matrix(1.9617001774039162,0,0,1.9617001774039162,154.50058676401136,-2.1540391123061866)" stroke="none" fill="#A9FFF1"><path d="M14.3 20.5c1.7-4.1 4.6-6.6 9.3-5.8 1.7.3 2 1.3 3.4 1.7 2.5.8 4.3.6 6.8-.3 3.3-1.3 5.7-3.4 9.2 1.6.9 1.4 1.1 3.7 1.4 5.3.8 4.3 1.2 8.5.5 12.8-.7 4.6-3 9.5-8.2 9.8-3.3.2-5.3-2.3-8.2-3.1-1.5-.4-3.3 1-4.5 1.5-6.2 2.4-9.2-6.7-10.2-10.8-.2-.8-1.4-.5-1.2.3 1 4.3 2.5 8.2 6.2 10.8 4.3 2.9 8.4-1.9 12.6 1 8.3 5.7 13.8-3.5 14.8-10.7.7-4.9-.4-10.2-1.3-15-.7-3.5-3.2-5.8-6.7-6.3-4.7-.6-6.2 4.5-11.8 1.3-1.8-1.1-3.4-1.5-5.6-1.4-3.9.1-6.5 3.7-7.8 6.9-.2.8 1 1.1 1.3.4"></path><path d="M19.7 13.7c-1.8-1.3-9.3-6.1-11.3-2.6-.7 1.2-.2 4.3.6 5.5 1.7 2.6 3.9 3.9 6.6 5.3 4.3 2.3 8.3 5 12.3 7.7 2.6 1.7-1.4 6.1-2.3 7.5-2.1 3.1-3.9 1.7-6.3 0-3.9-2.7-7.6-5.7-11.3-8.7-3.3-2.6-6.3-6-4.2-11 1.1-2.7 4.1-4.4 6.5-5.7.7-.4.1-1.5-.6-1.1-5.6 2.9-11.1 9.5-5.8 15.6 2.7 3 6.1 5.4 9.3 7.9q3.45 2.7 6.9 5.1c1 .7 2.4 2.1 3.7 2.1 1.8 0 4.1-5.3 4.9-6.6.8-1.2 3.3-3.8 1.4-5.1-4.9-3.3-9.8-6.6-15-9.3-1.2-.6-2.3-1.3-3.3-2.2.6.5-4.6-6.2-1-6.5 3.1-.2 5.9 1.6 8.4 3.3.5.4 1.1-.7.5-1.2"></path><path d="M9.2 17.1c-.4 1.2-1.4 2-1.8 3.2-.2.8 1 1.1 1.2.3.3-1.2 1.4-2 1.8-3.2.3-.8-1-1.1-1.2-.3M12.8 19.9c-.6.9-1 1.8-1.3 2.8-.2.8 1 1.1 1.2.3.3-.9.6-1.7 1.2-2.5.4-.7-.7-1.3-1.1-.6M16.3 22.2c-.3 1.6-.9 3.1-1.9 4.5-.5.7.6 1.3 1.1.6 1-1.4 1.7-3 2-4.8.1-.7-1.1-1.1-1.2-.3M20.5 24.5c-.4 1.5-1.2 3.1-1.8 4.6-.3.7.9 1.1 1.2.3.6-1.5 1.4-3 1.8-4.6.2-.8-1-1.1-1.2-.3M24.6 27.4c-.6 1-1.2 2.1-1.8 3.1-.4.7.7 1.4 1.1.6.5-1.1 1.1-2.1 1.8-3.1.4-.6-.7-1.3-1.1-.6M24 3.1c3.3 3.3 5.1 7.6 5.1 12.3 0 .8 1.3.8 1.3 0-.1-5-2-9.6-5.5-13.2-.6-.6-1.5.3-.9.9"></path><path d="M29.2 9.3c.5-2.8 3.1-6.6 6.3-6.8 2.1-.2 4.3 0 6.5.1h1.1c1.3 2.5.6 4.1-2.1 4.6-1.3.5-2.8.7-4.2.9-2.5.3-5.1.1-7.6-.5-.8-.2-1.1 1-.3 1.2 4.5 1 9.1.9 13.4-.8 2.3-1 4.6-4 2.9-6.3-.6-.8-2.5-.4-3.2-.4-2.4 0-4.9-.2-7.3 0-3.3.2-6.1 4.7-6.7 7.6-.1.8 1.1 1.1 1.2.4"></path></g></svg>